<svg width="1760" height="1760" xmlns="http://www.w3.org/2000/svg" xmlns:xlink="http://www.w3.org/1999/xlink" xml:space="preserve" overflow="hidden"><defs><clipPath id="clip0"><rect x="1275" y="321" width="1760" height="1760"/></clipPath><linearGradient x1="2156" y1="354" x2="2156" y2="2044" gradientUnits="userSpaceOnUse" spreadMethod="reflect" id="fill1"><stop offset="0" stop-color="#663300"/><stop offset="0.025641" stop-color="#673300"/><stop offset="0.0512821" stop-color="#693400"/><stop offset="0.0769231" stop-color="#6B3500"/><stop offset="0.102564" stop-color="#6D3600"/><stop offset="0.128205" stop-color="#6F3700"/><stop offset="0.153846" stop-color="#703800"/><stop offset="0.179487" stop-color="#723900"/><stop offset="0.205128" stop-color="#733900"/><stop offset="0.230769" stop-color="#753A00"/><stop offset="0.25641" stop-color="#773B00"/><stop offset="0.282051" stop-color="#783C00"/><stop offset="0.307692" stop-color="#793C00"/><stop offset="0.333333" stop-color="#7B3D00"/><stop offset="0.358974" stop-color="#7C3E00"/><stop offset="0.384615" stop-color="#7D3E00"/><stop offset="0.410256" stop-color="#7F3F00"/><stop offset="0.435897" stop-color="#804000"/><stop offset="0.461538" stop-color="#814000"/><stop offset="0.487179" stop-color="#824100"/><stop offset="0.512821" stop-color="#834100"/><stop offset="0.538462" stop-color="#844200"/><stop offset="0.564103" stop-color="#854200"/><stop offset="0.589744" stop-color="#864300"/><stop offset="0.615385" stop-color="#874300"/><stop offset="0.641026" stop-color="#884400"/><stop offset="0.666667" stop-color="#884400"/><stop offset="0.692308" stop-color="#894400"/><stop offset="0.717949" stop-color="#8A4500"/><stop offset="0.74359" stop-color="#8A4500"/><stop offset="0.769231" stop-color="#8B4500"/><stop offset="0.794872" stop-color="#8B4500"/><stop offset="0.820513" stop-color="#8C4600"/><stop offset="0.846154" stop-color="#8C4600"/><stop offset="0.871795" stop-color="#8D4600"/><stop offset="0.897436" stop-color="#8D4600"/><stop offset="0.923077" stop-color="#8D4600"/><stop offset="0.948718" stop-color="#8D4600"/><stop offset="0.974359" stop-color="#8D4600"/><stop offset="1" stop-color="#8E4700"/></linearGradient><clipPath id="clip2"><rect x="1964" y="849" width="1045" height="1046"/></clipPath><clipPath id="clip3"><rect x="1964" y="849" width="1045" height="1046"/></clipPath><clipPath id="clip4"><rect x="1964" y="849" width="1045" height="1046"/></clipPath></defs><g clip-path="url(#clip0)" transform="translate(-1275 -321)"><path d="M1275 614.339C1275 452.332 1406.33 321 1568.34 321L2741.66 321C2903.67 321 3035 452.332 3035 614.339L3035 1787.66C3035 1949.67 2903.67 2081 2741.66 2081L1568.34 2081C1406.33 2081 1275 1949.67 1275 1787.66Z" fill="#000000" fill-rule="evenodd" fill-opacity="0.101961"/><path d="M1298 1768 3014 1768C3014 1929.82 2885.95 2061 2727.99 2061L1584.01 2061C1426.05 2061 1298 1929.82 1298 1768Z" fill="#663300" fill-rule="evenodd"/><path d="M1298 634C1298 472.18 1426.05 341 1584.01 341L2727.99 341C2885.95 341 3014 472.18 3014 634L1298 634Z" fill="#8E4700" fill-rule="evenodd"/><path d="M1298 660.308C1298 510.187 1421.42 354 1567.73 354L2729.86 354C2876.18 354 3014 510.187 3014 660.308L3014 1747.55C3014 1897.67 2876.18 2044 2729.86 2044L1568.94 2043.19C1422.63 2043.19 1298 1897.67 1298 1747.55L1298 660.308Z" fill="url(#fill1)" fill-rule="evenodd"/><path d="M1298 648C1298 485.628 1426.05 354 1584.01 354L2727.99 354C2885.95 354 3014 485.628 3014 648L1298 648Z" fill="#663300" fill-rule="evenodd" fill-opacity="0.501961"/><rect x="1298" y="648" width="1716" height="643" fill="#663300" fill-opacity="0.501961"/><g clip-path="url(#clip2)"><g clip-path="url(#clip3)"><g clip-path="url(#clip4)"><path d="M326.25 212.062 163.125 311.025 522 528.525 685.125 429.562Z" fill="#FFFFFF" transform="matrix(1 0 0 1.00096 1965 849)"/><path d="M880.875 311.025 522 93.525 367.575 187.05 726.45 404.55Z" fill="#FFFFFF" transform="matrix(1 0 0 1.00096 1965 849)"/><path d="M163.125 398.025 163.125 746.025 500.25 950.475 500.25 566.587 163.125 362.137Z" fill="#FFFFFF" transform="matrix(1 0 0 1.00096 1965 849)"/><path d="M663.375 626.4 587.25 669.9 587.25 593.775 663.375 550.275 663.375 626.4ZM543.75 566.587 543.75 950.475 880.875 746.025 880.875 362.137 543.75 566.587Z" fill="#FFFFFF" transform="matrix(1 0 0 1.00096 1965 849)"/></g></g></g><path d="M1350 1270.75 1369.84 1270.75 1369.84 1588.25 1350 1588.25ZM1389.69 1270.75 1429.38 1270.75 1429.38 1588.25 1389.69 1588.25ZM1449.22 1270.75 1708.5 1270.75 1708.5 1112 2026 1429.5 1708.5 1747 1708.5 1588.25 1449.22 1588.25Z" fill="#FFFFFF" fill-rule="evenodd" fill-opacity="0.501961"/><path d="M1471 1300.75 1832.5 1300.75 1832.5 1162 2110 1439.5 1832.5 1717 1832.5 1578.25 1471 1578.25 1609.75 1439.5Z" fill="#FFFFFF" fill-rule="evenodd"/><path d="M2297.68 1390.11C2306.81 1389.58 2315.91 1391.05 2324.8 1393 2335.47 1395.42 2345.9 1398.93 2355.87 1403.46 2361.96 1406.34 2367.91 1409.62 2373.25 1413.75 2376.89 1416.61 2380.36 1419.9 2382.57 1424.03 2384.03 1426.72 2384.48 1430.02 2383.43 1432.92 2381.97 1436.97 2378.95 1440.2 2375.81 1443 2367.32 1450.21 2357.13 1455 2346.83 1458.97 2334.36 1463.65 2321.36 1467.03 2308.12 1468.53 2298.94 1469.62 2289.68 1468.68 2280.62 1467.14 2268.28 1465 2256.15 1461.62 2244.54 1456.9 2238.34 1454.32 2232.26 1451.33 2226.71 1447.51 2223.53 1445.29 2220.5 1442.77 2218.09 1439.71 2216.45 1437.55 2215.07 1435.01 2215 1432.23 2214.95 1429.47 2216.15 1426.88 2217.67 1424.65 2219.62 1421.82 2222.07 1419.35 2224.7 1417.16 2232.77 1410.57 2242.15 1405.84 2251.7 1401.83 2257.44 1399.46 2263.32 1397.41 2269.27 1395.64 2278.54 1392.93 2288.04 1390.81 2297.68 1390.11Z" fill="#874300" fill-rule="evenodd"/><path d="M2395.58 1438C2399.36 1443.68 2402.6 1449.72 2405.26 1456 2407.32 1460.68 2408.83 1465.57 2410.35 1470.45 2416.74 1492.67 2416.57 1516.77 2409.69 1538.85 2406.35 1550 2401.47 1560.73 2394.9 1570.34 2391.65 1575 2388.02 1579.46 2383.64 1583.11 2381.77 1584.63 2379.74 1586.06 2377.43 1586.81 2375.6 1587.4 2373.76 1586.49 2372.15 1585.7 2366.83 1582.83 2362.61 1578.34 2358.78 1573.73 2351.8 1565.02 2346.45 1555.03 2342.72 1544.5 2337.87 1531.31 2335.62 1517.17 2336.05 1503.11 2336.37 1493.74 2337.82 1484.42 2340.35 1475.4 2352.88 1471.49 2365.19 1466.5 2376.25 1459.34 2381.08 1456.17 2385.64 1452.53 2389.43 1448.15 2392.01 1445.13 2394.21 1441.74 2395.58 1438Z" fill="#874300" fill-rule="evenodd"/><path d="M2190.21 1469.45C2193.34 1459.8 2197.7 1450.57 2203.11 1442 2204.85 1445.6 2207.3 1448.83 2210.13 1451.64 2215.02 1456.47 2220.79 1460.28 2226.8 1463.52 2235.43 1468.18 2244.65 1471.62 2253.98 1474.54 2259.18 1499.15 2257.6 1525.12 2249.72 1548.98 2246.4 1558.89 2242.01 1568.54 2235.86 1577.01 2233.35 1580.35 2230.6 1583.62 2227.08 1585.9 2225.86 1586.66 2224.39 1587.38 2222.96 1586.78 2219.36 1585.5 2216.33 1583.02 2213.54 1580.47 2204.61 1572 2198.08 1561.28 2193.13 1550.05 2190.25 1543.13 2187.84 1535.99 2186.33 1528.64 2182.13 1509.04 2183.72 1488.35 2190.21 1469.45Z" fill="#874300" fill-rule="evenodd"/><path d="M2269.15 1478C2282.43 1480.93 2296.14 1482.91 2309.74 1481.34 2315.2 1480.73 2320.63 1479.8 2325.99 1478.6 2321.15 1500.66 2322.15 1524.06 2329.29 1545.49 2333.51 1558.72 2339.91 1571.29 2348.46 1582.2 2353.88 1588.94 2360.17 1595.27 2368 1599.07 2358.96 1605.62 2349 1610.9 2338.48 1614.55 2310.94 1624.3 2279.73 1622.96 2253.13 1610.78 2246.05 1607.59 2239.3 1603.63 2233 1599.06 2237.57 1596.73 2241.3 1593.05 2244.62 1589.17 2252.53 1579.61 2258.01 1568.24 2262.23 1556.59 2271 1531.54 2273.56 1504.22 2269.15 1478Z" fill="#874300" fill-rule="evenodd"/><path d="M1955.83 590.25C1976.78 589.037 1997.68 592.4 2018.08 596.864 2042.59 602.415 2066.53 610.47 2089.43 620.847 2103.41 627.432 2117.05 634.941 2129.33 644.409 2137.68 650.972 2145.65 658.495 2150.71 667.978 2154.06 674.134 2155.09 681.68 2152.68 688.346 2149.34 697.622 2142.41 705.005 2135.19 711.428 2115.7 727.946 2092.3 738.921 2068.66 748.019 2040.02 758.75 2010.18 766.488 1979.78 769.925 1958.72 772.416 1937.46 770.258 1916.65 766.732 1888.33 761.847 1860.47 754.087 1833.83 743.274 1819.58 737.369 1805.63 730.51 1792.88 721.752 1785.58 716.668 1778.63 710.91 1773.1 703.882 1769.32 698.945 1766.17 693.121 1766 686.757 1765.89 680.438 1768.65 674.496 1772.12 669.382 1776.61 662.893 1782.23 657.254 1788.28 652.228 1806.8 637.129 1828.34 626.294 1850.26 617.1 1863.44 611.668 1876.93 606.967 1890.6 602.917 1911.89 596.716 1933.68 591.861 1955.83 590.25Z" fill="#FFFFFF" fill-rule="evenodd"/><path d="M2180.52 700C2189.17 713.037 2196.59 726.893 2202.69 741.325 2207.4 752.067 2210.87 763.289 2214.34 774.482 2228.98 825.487 2228.59 880.793 2212.84 931.488 2205.19 957.076 2194.01 981.696 2178.94 1003.75 2171.5 1014.46 2163.18 1024.7 2153.15 1033.08 2148.86 1036.56 2144.22 1039.84 2138.93 1041.56 2134.73 1042.93 2130.52 1040.82 2126.82 1039.01 2114.64 1032.42 2104.97 1022.12 2096.2 1011.55 2080.21 991.539 2067.95 968.608 2059.4 944.459 2048.29 914.172 2043.13 881.716 2044.12 849.458 2044.84 827.951 2048.16 806.54 2053.96 785.837 2082.67 776.88 2110.88 765.422 2136.22 748.991 2147.28 741.716 2157.73 733.342 2166.42 723.293 2172.32 716.365 2177.37 708.595 2180.52 700Z" fill="#FFFFFF" fill-rule="evenodd"/><path d="M1711.3 772.844C1718.49 750.759 1728.54 729.611 1740.97 710 1744.99 718.243 1750.63 725.63 1757.14 732.063 1768.38 743.121 1781.67 751.852 1795.51 759.275 1815.37 769.934 1836.57 777.808 1858.04 784.5 1870.02 840.852 1866.38 900.321 1848.25 954.952 1840.6 977.643 1830.5 999.744 1816.35 1019.13 1810.58 1026.76 1804.25 1034.27 1796.13 1039.48 1793.34 1041.22 1789.94 1042.87 1786.65 1041.49 1778.37 1038.56 1771.4 1032.89 1764.97 1027.05 1744.43 1007.65 1729.4 983.102 1718.02 957.397 1711.39 941.56 1705.85 925.206 1702.37 908.365 1692.69 863.499 1696.35 816.129 1711.3 772.844Z" fill="#FFFFFF" fill-rule="evenodd"/><path d="M1890.47 793C1920.78 799.648 1952.06 804.154 1983.09 800.601 1995.54 799.198 2007.92 797.092 2020.16 794.374 2009.12 844.501 2011.39 897.68 2027.67 946.389 2037.32 976.461 2051.92 1005.03 2071.43 1029.81 2083.78 1045.14 2098.14 1059.52 2116 1068.15 2095.38 1083.04 2072.66 1095.03 2048.66 1103.34 1985.81 1125.5 1914.61 1122.46 1853.93 1094.78 1837.77 1087.52 1822.38 1078.53 1808 1068.13 1818.42 1062.84 1826.95 1054.49 1834.5 1045.65 1852.55 1023.92 1865.07 998.089 1874.69 971.607 1894.7 914.684 1900.55 852.597 1890.47 793Z" fill="#FFFFFF" fill-rule="evenodd"/></g></svg>